<svg width="317" height="317" viewBox="0 0 317 317" fill="none" xmlns="http://www.w3.org/2000/svg">
<path fill-rule="evenodd" clip-rule="evenodd" d="M201.068 221.126C216.713 211.793 238.512 204.09 263.352 200.013C280.746 197.158 297.462 196.436 312.23 197.547C314.3 189.473 315.748 181.151 316.523 172.634C316.64 164.249 316.719 155.868 313.875 147.782C310.994 139.596 305.116 131.713 294.975 125.414C284.834 119.115 270.428 114.398 258.469 112.304C246.511 110.21 237.002 110.735 227.493 111.263C202.843 113.74 179.795 121.305 159.534 132.832C159.004 133.157 158.458 133.472 157.896 133.775C151.311 137.333 142.541 139.406 134.739 139.406C111.193 138.481 92.3875 119.117 92.3875 95.364C92.3875 88.5263 93.9458 82.0535 96.7271 76.2786C97.3261 75.0351 97.9817 73.8248 98.6903 72.6492C118.948 36.7002 157.37 12.3341 201.519 11.9776C202.802 11.5631 203.729 10.3495 203.729 8.92025C203.729 7.56897 202.901 6.41334 201.73 5.93915C201.504 5.87614 201.278 5.81314 201.053 5.75014C187.538 2.00635 173.296 0.00512695 158.586 0.00512695C72.0372 0.00512695 1.68136 69.2735 0.025186 155.351C0.025186 155.356 0.025186 155.362 0.025186 155.367C0.0102506 156.284 0.00195312 157.203 0.00195312 158.123C0.00195312 210.009 24.964 256.07 63.5439 284.972C64.1048 285.392 64.669 285.81 65.2349 286.223C72.4072 291.263 81.1511 294.224 90.587 294.224C102.369 294.224 113.071 289.61 120.984 282.091C138.714 266.898 156.442 251.706 169.821 241.528C183.107 231.42 192.103 226.257 201.068 221.131V221.126Z" fill="#0191C1"/>
<path fill-rule="evenodd" clip-rule="evenodd" d="M171.162 113.326C185.017 102.325 209.47 94.5921 237.545 93.5757C244.541 89.0344 250.457 83.7603 254.925 78.0766C260.464 82.6113 264.278 88.28 265.804 94.8258C280.502 96.706 293.639 100.442 304.072 105.482C295.187 58.28 253.71 22.5664 203.885 22.5664C189.821 22.5664 176.421 25.4116 164.232 30.558C164.069 30.626 163.908 30.6956 163.747 30.7636C162.961 31.1997 162.43 32.037 162.43 32.9986C162.43 34.4079 163.573 35.5519 164.985 35.5519C165.141 35.5519 165.296 35.5387 165.443 35.5105C172.926 33.763 180.726 32.8378 188.743 32.8378C196.617 32.8378 204.282 33.7298 211.644 35.4176C212.795 35.6647 213.66 36.6893 213.66 37.913C213.66 38.8381 213.167 39.6489 212.43 40.0966C212.196 40.2391 211.937 40.3453 211.66 40.4049C187.349 50.3464 170.221 74.2184 170.221 102.088C170.221 105.918 170.545 109.672 171.165 113.324L171.162 113.326Z" fill="#0191C1"/>
<path fill-rule="evenodd" clip-rule="evenodd" d="M269.129 215.027C249.557 218.241 228.541 224.173 210.634 233.567C208.593 234.663 206.585 235.757 204.592 236.943C204.565 236.958 204.543 236.971 204.517 236.986C199.772 239.7 195.063 242.429 190.444 245.359C184.316 249.247 178.403 253.423 172.628 257.817C157.477 269.344 142.805 282.028 128.308 294.487L120.279 301.375C120.198 301.444 120.128 301.501 120.042 301.566C116.224 304.459 112.551 306.049 108.512 307.536C108.1 307.687 107.72 307.888 107.377 308.128C113.613 310.252 120.024 311.999 126.582 313.342C126.718 313.246 126.856 313.15 126.992 313.052C127.022 313.031 127.047 313.012 127.077 312.991C128.897 311.63 130.58 310.303 132.244 308.74C132.303 308.685 132.354 308.64 132.414 308.587C140.978 301.247 149.543 293.902 158.191 286.658C165.584 280.466 173.056 274.293 180.733 268.453C186.206 264.29 191.809 260.329 197.615 256.645C198.292 256.216 204.369 252.389 205.45 251.94C205.687 251.84 205.883 251.742 206.103 251.61C207.874 250.547 209.653 249.451 211.439 248.431L214.92 246.44C214.948 246.423 214.973 246.41 215.003 246.394C231.986 237.1 252.511 231.304 271.297 228.22C282.223 226.426 292.309 225.451 302.238 225.345C304.277 221.003 306.126 216.553 307.77 212.005C295.309 211.749 282.795 212.786 269.128 215.029L269.129 215.027Z" fill="#0191C1"/>
<path fill-rule="evenodd" clip-rule="evenodd" d="M278.688 242.062C259.116 245.276 238.101 251.208 220.193 260.602L220.16 260.543L218.001 261.778C217.974 261.793 217.953 261.806 217.926 261.819C216.65 262.521 215.392 263.24 214.152 263.976C214.126 263.991 214.104 264.005 214.078 264.02C209.333 266.734 204.624 269.463 200.005 272.392C193.877 276.281 187.964 280.457 182.189 284.851C169.273 294.678 156.759 305.374 144.402 315.94C149.075 316.355 153.808 316.565 158.589 316.565C160.538 316.565 162.478 316.53 164.408 316.461C172.901 309.275 181.504 302.174 190.294 295.485C195.767 291.322 201.369 287.361 207.176 283.677C209.798 282.014 212.451 280.419 215.125 278.854L215.173 278.935L220.815 275.569C220.844 275.553 220.867 275.539 220.895 275.523C220.93 275.503 220.965 275.483 220.999 275.463L224.481 273.472C224.509 273.455 224.534 273.442 224.564 273.425C241.547 264.132 262.072 258.336 280.857 255.252C282.004 255.065 283.156 254.884 284.311 254.711C287.932 250.013 291.296 245.107 294.381 240.013C289.09 240.524 283.843 241.215 278.688 242.061V242.062Z" fill="#0191C1"/>
<path fill-rule="evenodd" clip-rule="evenodd" d="M269.124 271.74C254.695 275.192 240.176 280.164 227.273 286.934L227.24 286.874L225.081 288.109C225.055 288.124 225.033 288.137 225.006 288.151C223.73 288.852 222.472 289.57 221.233 290.308C221.206 290.323 221.185 290.336 221.158 290.351C216.414 293.065 211.704 295.794 207.086 298.724C200.957 302.612 195.044 306.788 189.269 311.182C187.894 312.228 186.525 313.286 185.162 314.352C217.537 308.896 246.578 293.639 269.126 271.74H269.124Z" fill="#0191C1"/>
</svg>
